<?xml version="1.0" encoding="UTF-8" standalone="no"?>
<!DOCTYPE svg PUBLIC "-//W3C//DTD SVG 1.1//EN"
 "http://www.w3.org/Graphics/SVG/1.1/DTD/svg11.dtd">
<!-- Generated by graphviz version 16.0.0 (20260814.1018)
 -->
<!-- Title: game::EntityView Pages: 1 -->
<svg width="672pt" height="396pt"
 viewBox="0.00 0.00 672.00 396.00" xmlns="http://www.w3.org/2000/svg" xmlns:xlink="http://www.w3.org/1999/xlink">
<g id="graph0" class="graph" transform="scale(1 1) rotate(0) translate(4 392)">
<title>game::EntityView</title>
<!-- Node1 -->
<g id="Node000001" class="node">
<title>Node1</title>
<g id="a_Node000001"><a xlink:title="The EntityView class represents the visual representation of an entity in the game....">
<polygon fill="#999999" stroke="none" points="393.25,-268 308,-268 308,-120 393.25,-120 393.25,-268"/>
<polygon fill="#666666" stroke="#666666" points="308,-250 308,-250 393.25,-250 393.25,-250 308,-250"/>
<polygon fill="#666666" stroke="#666666" points="308,-170 308,-170 327,-170 327,-170 308,-170"/>
<polygon fill="#666666" stroke="#666666" points="327,-170 327,-170 393.25,-170 393.25,-170 327,-170"/>
<polygon fill="none" stroke="#666666" points="308,-120 308,-268 393.25,-268 393.25,-120 308,-120"/>
<text xml:space="preserve" text-anchor="start" x="312" y="-254.25" font-family="Helvetica,sans-Serif" font-size="10.00">game::EntityView</text>
<text xml:space="preserve" text-anchor="start" x="315.88" y="-238.25" font-family="Helvetica,sans-Serif" font-size="10.00">#</text>
<text xml:space="preserve" text-anchor="start" x="329" y="-238.25" font-family="Helvetica,sans-Serif" font-size="10.00">model</text>
<text xml:space="preserve" text-anchor="start" x="315.88" y="-222.25" font-family="Helvetica,sans-Serif" font-size="10.00">#</text>
<text xml:space="preserve" text-anchor="start" x="329" y="-222.25" font-family="Helvetica,sans-Serif" font-size="10.00">position</text>
<text xml:space="preserve" text-anchor="start" x="315.88" y="-206.25" font-family="Helvetica,sans-Serif" font-size="10.00">#</text>
<text xml:space="preserve" text-anchor="start" x="329" y="-206.25" font-family="Helvetica,sans-Serif" font-size="10.00">size</text>
<text xml:space="preserve" text-anchor="start" x="315.88" y="-190.25" font-family="Helvetica,sans-Serif" font-size="10.00">#</text>
<text xml:space="preserve" text-anchor="start" x="329" y="-190.25" font-family="Helvetica,sans-Serif" font-size="10.00">sprite</text>
<text xml:space="preserve" text-anchor="start" x="315.88" y="-174.25" font-family="Helvetica,sans-Serif" font-size="10.00">#</text>
<text xml:space="preserve" text-anchor="start" x="329" y="-174.25" font-family="Helvetica,sans-Serif" font-size="10.00">animations</text>
<text xml:space="preserve" text-anchor="start" x="315.5" y="-158.25" font-family="Helvetica,sans-Serif" font-size="10.00">+</text>
<text xml:space="preserve" text-anchor="start" x="329" y="-158.25" font-family="Helvetica,sans-Serif" font-size="10.00">EntityView()</text>
<text xml:space="preserve" text-anchor="start" x="315.5" y="-142.25" font-family="Helvetica,sans-Serif" font-size="10.00">+</text>
<text xml:space="preserve" text-anchor="start" x="329" y="-142.25" font-family="Helvetica,sans-Serif" font-size="10.00">update()</text>
<text xml:space="preserve" text-anchor="start" x="315.5" y="-126.25" font-family="Helvetica,sans-Serif" font-size="10.00">+</text>
<text xml:space="preserve" text-anchor="start" x="329" y="-126.25" font-family="Helvetica,sans-Serif" font-size="10.00">render()</text>
</a>
</g>
</g>
<!-- Node3 -->
<g id="Node000003" class="node">
<title>Node3</title>
<g id="a_Node000003"><a xlink:href="classgame_1_1_bomb_view.html" target="_top" xlink:title="The BombView class represents the visual representation of a bomb entity in the game....">
<polygon fill="white" stroke="none" points="85.25,-68 0,-68 0,-16 85.25,-16 85.25,-68"/>
<polygon fill="#666666" stroke="#666666" points="0,-50 0,-50 85.25,-50 85.25,-50 0,-50"/>
<polygon fill="#666666" stroke="#666666" points="0,-34 0,-34 85.25,-34 85.25,-34 0,-34"/>
<polygon fill="none" stroke="#666666" points="0,-16 0,-68 85.25,-68 85.25,-16 0,-16"/>
<text xml:space="preserve" text-anchor="start" x="4" y="-54.25" font-family="Helvetica,sans-Serif" font-size="10.00">game::BombView</text>
<text xml:space="preserve" text-anchor="start" x="41.12" y="-38.25" font-family="Helvetica,sans-Serif" font-size="10.00"> </text>
<text xml:space="preserve" text-anchor="start" x="7.5" y="-22.25" font-family="Helvetica,sans-Serif" font-size="10.00">+</text>
<text xml:space="preserve" text-anchor="start" x="21" y="-22.25" font-family="Helvetica,sans-Serif" font-size="10.00">BombView()</text>
</a>
</g>
</g>
<!-- Node1&#45;&gt;Node3 -->
<g id="edge2_Node000001_Node000003" class="edge">
<title>Node1&#45;&gt;Node3</title>
<g id="a_edge2_Node000001_Node000003"><a xlink:title=" ">
<path fill="none" stroke="#63b8ff" d="M297.65,-175.13C244.47,-156.13 161.1,-123.41 94.62,-84 86.71,-79.31 78.67,-73.55 71.35,-67.84"/>
<polygon fill="none" stroke="#63b8ff" points="296.18,-178.32 306.77,-178.36 298.51,-171.72 296.18,-178.32"/>
</a>
</g>
</g>
<!-- Node4 -->
<g id="Node000004" class="node">
<title>Node4</title>
<g id="a_Node000004"><a xlink:href="classgame_1_1_character_view.html" target="_top" xlink:title="The CharacterView class represents the visual representation of a character entity in the game....">
<polygon fill="white" stroke="none" points="225.75,-84 103.5,-84 103.5,0 225.75,0 225.75,-84"/>
<polygon fill="#666666" stroke="#666666" points="103.5,-66 103.5,-66 225.75,-66 225.75,-66 103.5,-66"/>
<polygon fill="#666666" stroke="#666666" points="103.5,-18 103.5,-18 115.5,-18 115.5,-18 103.5,-18"/>
<polygon fill="#666666" stroke="#666666" points="115.5,-18 115.5,-18 225.75,-18 225.75,-18 115.5,-18"/>
<polygon fill="none" stroke="#666666" points="103.5,0 103.5,-84 225.75,-84 225.75,0 103.5,0"/>
<text xml:space="preserve" text-anchor="start" x="117.38" y="-70.25" font-family="Helvetica,sans-Serif" font-size="10.00">game::CharacterView</text>
<text xml:space="preserve" text-anchor="start" x="107.5" y="-54.25" font-family="Helvetica,sans-Serif" font-size="10.00">+</text>
<text xml:space="preserve" text-anchor="start" x="117.5" y="-54.25" font-family="Helvetica,sans-Serif" font-size="10.00">deathFrameCount</text>
<text xml:space="preserve" text-anchor="start" x="107.5" y="-38.25" font-family="Helvetica,sans-Serif" font-size="10.00">+</text>
<text xml:space="preserve" text-anchor="start" x="117.5" y="-38.25" font-family="Helvetica,sans-Serif" font-size="10.00">deathFrameDuration</text>
<text xml:space="preserve" text-anchor="start" x="107.5" y="-22.25" font-family="Helvetica,sans-Serif" font-size="10.00">+</text>
<text xml:space="preserve" text-anchor="start" x="117.5" y="-22.25" font-family="Helvetica,sans-Serif" font-size="10.00">deathAnimationDuration</text>
<text xml:space="preserve" text-anchor="start" x="107.5" y="-6.25" font-family="Helvetica,sans-Serif" font-size="10.00">+</text>
<text xml:space="preserve" text-anchor="start" x="117.5" y="-6.25" font-family="Helvetica,sans-Serif" font-size="10.00">CharacterView()</text>
</a>
</g>
</g>
<!-- Node1&#45;&gt;Node4 -->
<g id="edge3_Node000001_Node000004" class="edge">
<title>Node1&#45;&gt;Node4</title>
<g id="a_edge3_Node000001_Node000004"><a xlink:title=" ">
<path fill="none" stroke="#63b8ff" d="M299.74,-151.97C273.47,-130.77 241.5,-105 215.26,-83.84"/>
<polygon fill="none" stroke="#63b8ff" points="297.26,-154.46 307.24,-158.01 301.65,-149.01 297.26,-154.46"/>
</a>
</g>
</g>
<!-- Node5 -->
<g id="Node000005" class="node">
<title>Node5</title>
<g id="a_Node000005"><a xlink:href="classgame_1_1_explosion_view.html" target="_top" xlink:title="The ExplosionView class represents the visual representation of an explosion entity in the game....">
<polygon fill="white" stroke="none" points="345.88,-76 243.38,-76 243.38,-8 345.88,-8 345.88,-76"/>
<polygon fill="#666666" stroke="#666666" points="243.38,-58 243.38,-58 345.88,-58 345.88,-58 243.38,-58"/>
<polygon fill="#666666" stroke="#666666" points="243.38,-42 243.38,-42 345.88,-42 345.88,-42 243.38,-42"/>
<polygon fill="none" stroke="#666666" points="243.38,-8 243.38,-76 345.88,-76 345.88,-8 243.38,-8"/>
<text xml:space="preserve" text-anchor="start" x="247.38" y="-62.25" font-family="Helvetica,sans-Serif" font-size="10.00">game::ExplosionView</text>
<text xml:space="preserve" text-anchor="start" x="293.12" y="-46.25" font-family="Helvetica,sans-Serif" font-size="10.00"> </text>
<text xml:space="preserve" text-anchor="start" x="250.88" y="-30.25" font-family="Helvetica,sans-Serif" font-size="10.00">+</text>
<text xml:space="preserve" text-anchor="start" x="264.38" y="-30.25" font-family="Helvetica,sans-Serif" font-size="10.00">ExplosionView()</text>
<text xml:space="preserve" text-anchor="start" x="250.88" y="-14.25" font-family="Helvetica,sans-Serif" font-size="10.00">+</text>
<text xml:space="preserve" text-anchor="start" x="264.38" y="-14.25" font-family="Helvetica,sans-Serif" font-size="10.00">update()</text>
</a>
</g>
</g>
<!-- Node1&#45;&gt;Node5 -->
<g id="edge4_Node000001_Node000005" class="edge">
<title>Node1&#45;&gt;Node5</title>
<g id="a_edge4_Node000001_Node000005"><a xlink:title=" ">
<path fill="none" stroke="#63b8ff" d="M319.51,-109.66C315.05,-97.71 310.7,-86.05 306.91,-75.91"/>
<polygon fill="none" stroke="#63b8ff" points="316.14,-110.63 322.92,-118.78 322.7,-108.19 316.14,-110.63"/>
</a>
</g>
</g>
<!-- Node6 -->
<g id="Node000006" class="node">
<title>Node6</title>
<g id="a_Node000006"><a xlink:href="classgame_1_1_grass_view.html" target="_top" xlink:title="The GrassView class represents the visual representation of a grass entity in the game....">
<polygon fill="white" stroke="none" points="449.62,-68 363.62,-68 363.62,-16 449.62,-16 449.62,-68"/>
<polygon fill="#666666" stroke="#666666" points="363.62,-50 363.62,-50 449.62,-50 449.62,-50 363.62,-50"/>
<polygon fill="#666666" stroke="#666666" points="363.62,-34 363.62,-34 449.62,-34 449.62,-34 363.62,-34"/>
<polygon fill="none" stroke="#666666" points="363.62,-16 363.62,-68 449.62,-68 449.62,-16 363.62,-16"/>
<text xml:space="preserve" text-anchor="start" x="367.62" y="-54.25" font-family="Helvetica,sans-Serif" font-size="10.00">game::GrassView</text>
<text xml:space="preserve" text-anchor="start" x="405.12" y="-38.25" font-family="Helvetica,sans-Serif" font-size="10.00"> </text>
<text xml:space="preserve" text-anchor="start" x="371.12" y="-22.25" font-family="Helvetica,sans-Serif" font-size="10.00">+</text>
<text xml:space="preserve" text-anchor="start" x="384.62" y="-22.25" font-family="Helvetica,sans-Serif" font-size="10.00">GrassView()</text>
</a>
</g>
</g>
<!-- Node1&#45;&gt;Node6 -->
<g id="edge5_Node000001_Node000006" class="edge">
<title>Node1&#45;&gt;Node6</title>
<g id="a_edge5_Node000001_Node000006"><a xlink:title=" ">
<path fill="none" stroke="#63b8ff" d="M381.75,-109.63C387.43,-94.42 392.93,-79.68 397.31,-67.95"/>
<polygon fill="none" stroke="#63b8ff" points="378.55,-108.19 378.33,-118.78 385.11,-110.63 378.55,-108.19"/>
</a>
</g>
</g>
<!-- Node7 -->
<g id="Node000007" class="node">
<title>Node7</title>
<g id="a_Node000007"><a xlink:href="classgame_1_1_power_up_view.html" target="_top" xlink:title="The PowerUpView class represents the visual representation of a power&#45;up entity in the game....">
<polygon fill="white" stroke="none" points="567.75,-68 467.5,-68 467.5,-16 567.75,-16 567.75,-68"/>
<polygon fill="#666666" stroke="#666666" points="467.5,-50 467.5,-50 567.75,-50 567.75,-50 467.5,-50"/>
<polygon fill="#666666" stroke="#666666" points="467.5,-34 467.5,-34 567.75,-34 567.75,-34 467.5,-34"/>
<polygon fill="none" stroke="#666666" points="467.5,-16 467.5,-68 567.75,-68 567.75,-16 467.5,-16"/>
<text xml:space="preserve" text-anchor="start" x="471.5" y="-54.25" font-family="Helvetica,sans-Serif" font-size="10.00">game::PowerUpView</text>
<text xml:space="preserve" text-anchor="start" x="516.12" y="-38.25" font-family="Helvetica,sans-Serif" font-size="10.00"> </text>
<text xml:space="preserve" text-anchor="start" x="475" y="-22.25" font-family="Helvetica,sans-Serif" font-size="10.00">+</text>
<text xml:space="preserve" text-anchor="start" x="488.5" y="-22.25" font-family="Helvetica,sans-Serif" font-size="10.00">PowerUpView()</text>
</a>
</g>
</g>
<!-- Node1&#45;&gt;Node7 -->
<g id="edge6_Node000001_Node000007" class="edge">
<title>Node1&#45;&gt;Node7</title>
<g id="a_edge6_Node000001_Node000007"><a xlink:title=" ">
<path fill="none" stroke="#63b8ff" d="M401.59,-147.22C430.61,-121.16 465.83,-89.52 489.81,-67.99"/>
<polygon fill="none" stroke="#63b8ff" points="399.43,-144.46 394.32,-153.75 404.1,-149.67 399.43,-144.46"/>
</a>
</g>
</g>
<!-- Node8 -->
<g id="Node000008" class="node">
<title>Node8</title>
<g id="a_Node000008"><a xlink:href="classgame_1_1_wall_view.html" target="_top" xlink:title="The WallView class represents the visual representation of a wall entity in the game....">
<polygon fill="white" stroke="none" points="663.88,-68 585.38,-68 585.38,-16 663.88,-16 663.88,-68"/>
<polygon fill="#666666" stroke="#666666" points="585.38,-50 585.38,-50 663.88,-50 663.88,-50 585.38,-50"/>
<polygon fill="#666666" stroke="#666666" points="585.38,-34 585.38,-34 663.88,-34 663.88,-34 585.38,-34"/>
<polygon fill="none" stroke="#666666" points="585.38,-16 585.38,-68 663.88,-68 663.88,-16 585.38,-16"/>
<text xml:space="preserve" text-anchor="start" x="589.38" y="-54.25" font-family="Helvetica,sans-Serif" font-size="10.00">game::WallView</text>
<text xml:space="preserve" text-anchor="start" x="623.12" y="-38.25" font-family="Helvetica,sans-Serif" font-size="10.00"> </text>
<text xml:space="preserve" text-anchor="start" x="592.88" y="-22.25" font-family="Helvetica,sans-Serif" font-size="10.00">+</text>
<text xml:space="preserve" text-anchor="start" x="606.38" y="-22.25" font-family="Helvetica,sans-Serif" font-size="10.00">WallView()</text>
</a>
</g>
</g>
<!-- Node1&#45;&gt;Node8 -->
<g id="edge7_Node000001_Node000008" class="edge">
<title>Node1&#45;&gt;Node8</title>
<g id="a_edge7_Node000001_Node000008"><a xlink:title=" ">
<path fill="none" stroke="#63b8ff" d="M403.76,-171.98C450.91,-152.27 520.78,-120.44 576.62,-84 583.88,-79.27 591.22,-73.55 597.92,-67.91"/>
<polygon fill="none" stroke="#63b8ff" points="402.48,-168.73 394.57,-175.78 405.15,-175.19 402.48,-168.73"/>
</a>
</g>
</g>
<!-- Node2 -->
<g id="Node000002" class="node">
<title>Node2</title>
<g id="a_Node000002"><a xlink:href="classcore_1_1_observer.html" target="_top" xlink:title="The Observer class represents the observer in the Observer design pattern. It defines the interface f...">
<polygon fill="white" stroke="none" points="386.88,-388 314.38,-388 314.38,-304 386.88,-304 386.88,-388"/>
<polygon fill="#666666" stroke="#666666" points="314.38,-370 314.38,-370 386.88,-370 386.88,-370 314.38,-370"/>
<polygon fill="#666666" stroke="#666666" points="314.38,-354 314.38,-354 386.88,-354 386.88,-354 314.38,-354"/>
<polygon fill="none" stroke="#666666" points="314.38,-304 314.38,-388 386.88,-388 386.88,-304 314.38,-304"/>
<text xml:space="preserve" text-anchor="start" x="318.38" y="-374.25" font-family="Helvetica,sans-Serif" font-size="10.00">core::Observer</text>
<text xml:space="preserve" text-anchor="start" x="349.12" y="-358.25" font-family="Helvetica,sans-Serif" font-size="10.00"> </text>
<text xml:space="preserve" text-anchor="start" x="319.06" y="-342.25" font-family="Helvetica,sans-Serif" font-size="10.00">+</text>
<text xml:space="preserve" text-anchor="start" x="329.75" y="-342.25" font-family="Helvetica,sans-Serif" font-size="10.00">~Observer()</text>
<text xml:space="preserve" text-anchor="start" x="319.06" y="-326.25" font-family="Helvetica,sans-Serif" font-size="10.00">+</text>
<text xml:space="preserve" text-anchor="start" x="329.75" y="-326.25" font-family="Helvetica,sans-Serif" font-size="10.00">update()</text>
<text xml:space="preserve" text-anchor="start" x="319.06" y="-310.25" font-family="Helvetica,sans-Serif" font-size="10.00">+</text>
<text xml:space="preserve" text-anchor="start" x="329.75" y="-310.25" font-family="Helvetica,sans-Serif" font-size="10.00">render()</text>
</a>
</g>
</g>
<!-- Node2&#45;&gt;Node1 -->
<g id="edge1_Node000001_Node000002" class="edge">
<title>Node2&#45;&gt;Node1</title>
<g id="a_edge1_Node000001_Node000002"><a xlink:title=" ">
<path fill="none" stroke="#63b8ff" d="M350.62,-292.63C350.62,-284.65 350.62,-276.28 350.62,-267.95"/>
<polygon fill="none" stroke="#63b8ff" points="347.13,-292.5 350.63,-302.5 354.13,-292.5 347.13,-292.5"/>
</a>
</g>
</g>
</g>
</svg>
