<?xml version="1.0" encoding="UTF-8" standalone="no"?>
<!DOCTYPE svg PUBLIC "-//W3C//DTD SVG 1.1//EN"
 "http://www.w3.org/Graphics/SVG/1.1/DTD/svg11.dtd">
<!-- Generated by graphviz version 16.0.0 (20260814.1018)
 -->
<!-- Title: core::HighScores Pages: 1 -->
<svg width="92pt" height="92pt"
 viewBox="0.00 0.00 92.00 92.00" xmlns="http://www.w3.org/2000/svg" xmlns:xlink="http://www.w3.org/1999/xlink">
<g id="graph0" class="graph" transform="scale(1 1) rotate(0) translate(4 88)">
<title>core::HighScores</title>
<!-- Node1 -->
<g id="Node000001" class="node">
<title>Node1</title>
<g id="a_Node000001"><a xlink:title="Loads, updates, and persists the top&#45;5 high score list to a plain&#45;text file (one integer score per li...">
<polygon fill="#999999" stroke="none" points="83.75,-84 0,-84 0,0 83.75,0 83.75,-84"/>
<polygon fill="#666666" stroke="#666666" points="0,-66 0,-66 83.75,-66 83.75,-66 0,-66"/>
<polygon fill="#666666" stroke="#666666" points="0,-50 0,-50 83.75,-50 83.75,-50 0,-50"/>
<polygon fill="none" stroke="#666666" points="0,0 0,-84 83.75,-84 83.75,0 0,0"/>
<text xml:space="preserve" text-anchor="start" x="4" y="-70.25" font-family="Helvetica,sans-Serif" font-size="10.00">core::HighScores</text>
<text xml:space="preserve" text-anchor="start" x="40.38" y="-54.25" font-family="Helvetica,sans-Serif" font-size="10.00"> </text>
<text xml:space="preserve" text-anchor="start" x="6.19" y="-38.25" font-family="Helvetica,sans-Serif" font-size="10.00">+</text>
<text xml:space="preserve" text-anchor="start" x="18.38" y="-38.25" font-family="Helvetica,sans-Serif" font-size="10.00">HighScores()</text>
<text xml:space="preserve" text-anchor="start" x="6.19" y="-22.25" font-family="Helvetica,sans-Serif" font-size="10.00">+</text>
<text xml:space="preserve" text-anchor="start" x="18.38" y="-22.25" font-family="Helvetica,sans-Serif" font-size="10.00">getScores()</text>
<text xml:space="preserve" text-anchor="start" x="6.19" y="-6.25" font-family="Helvetica,sans-Serif" font-size="10.00">+</text>
<text xml:space="preserve" text-anchor="start" x="18.38" y="-6.25" font-family="Helvetica,sans-Serif" font-size="10.00">record()</text>
</a>
</g>
</g>
</g>
</svg>
