<?xml version="1.0" encoding="UTF-8" standalone="no"?>
<!DOCTYPE svg PUBLIC "-//W3C//DTD SVG 1.1//EN"
 "http://www.w3.org/Graphics/SVG/1.1/DTD/svg11.dtd">
<!-- Generated by graphviz version 16.0.0 (20260814.1018)
 -->
<!-- Title: core::Bomb Pages: 1 -->
<svg width="149pt" height="636pt"
 viewBox="0.00 0.00 149.00 636.00" xmlns="http://www.w3.org/2000/svg" xmlns:xlink="http://www.w3.org/1999/xlink">
<g id="graph0" class="graph" transform="scale(1 1) rotate(0) translate(4 632)">
<title>core::Bomb</title>
<!-- Node1 -->
<g id="Node000001" class="node">
<title>Node1</title>
<g id="a_Node000001"><a xlink:title="The Bomb class represents a bomb entity in the game world. It inherits from EntityModel and provides ...">
<polygon fill="#999999" stroke="none" points="141,-180 0,-180 0,0 141,0 141,-180"/>
<polygon fill="#666666" stroke="#666666" points="0,-162 0,-162 141,-162 141,-162 0,-162"/>
<polygon fill="#666666" stroke="#666666" points="0,-146 0,-146 141,-146 141,-146 0,-146"/>
<polygon fill="none" stroke="#666666" points="0,0 0,-180 141,-180 141,0 0,0"/>
<text xml:space="preserve" text-anchor="start" x="45.38" y="-166.25" font-family="Helvetica,sans-Serif" font-size="10.00">core::Bomb</text>
<text xml:space="preserve" text-anchor="start" x="69" y="-150.25" font-family="Helvetica,sans-Serif" font-size="10.00"> </text>
<text xml:space="preserve" text-anchor="start" x="4" y="-134.25" font-family="Helvetica,sans-Serif" font-size="10.00">+</text>
<text xml:space="preserve" text-anchor="start" x="14" y="-134.25" font-family="Helvetica,sans-Serif" font-size="10.00">Bomb()</text>
<text xml:space="preserve" text-anchor="start" x="4" y="-118.25" font-family="Helvetica,sans-Serif" font-size="10.00">+</text>
<text xml:space="preserve" text-anchor="start" x="14" y="-118.25" font-family="Helvetica,sans-Serif" font-size="10.00">renderLayer()</text>
<text xml:space="preserve" text-anchor="start" x="4" y="-102.25" font-family="Helvetica,sans-Serif" font-size="10.00">+</text>
<text xml:space="preserve" text-anchor="start" x="14" y="-102.25" font-family="Helvetica,sans-Serif" font-size="10.00">getOwner()</text>
<text xml:space="preserve" text-anchor="start" x="4" y="-86.25" font-family="Helvetica,sans-Serif" font-size="10.00">+</text>
<text xml:space="preserve" text-anchor="start" x="14" y="-86.25" font-family="Helvetica,sans-Serif" font-size="10.00">getRadius()</text>
<text xml:space="preserve" text-anchor="start" x="4" y="-70.25" font-family="Helvetica,sans-Serif" font-size="10.00">+</text>
<text xml:space="preserve" text-anchor="start" x="14" y="-70.25" font-family="Helvetica,sans-Serif" font-size="10.00">onTick()</text>
<text xml:space="preserve" text-anchor="start" x="4" y="-54.25" font-family="Helvetica,sans-Serif" font-size="10.00">+</text>
<text xml:space="preserve" text-anchor="start" x="14" y="-54.25" font-family="Helvetica,sans-Serif" font-size="10.00">blocksCharacterMovement()</text>
<text xml:space="preserve" text-anchor="start" x="4" y="-38.25" font-family="Helvetica,sans-Serif" font-size="10.00">+</text>
<text xml:space="preserve" text-anchor="start" x="14" y="-38.25" font-family="Helvetica,sans-Serif" font-size="10.00">isBomb()</text>
<text xml:space="preserve" text-anchor="start" x="4" y="-22.25" font-family="Helvetica,sans-Serif" font-size="10.00">+</text>
<text xml:space="preserve" text-anchor="start" x="14" y="-22.25" font-family="Helvetica,sans-Serif" font-size="10.00">threatensTile()</text>
<text xml:space="preserve" text-anchor="start" x="4" y="-6.25" font-family="Helvetica,sans-Serif" font-size="10.00">+</text>
<text xml:space="preserve" text-anchor="start" x="14" y="-6.25" font-family="Helvetica,sans-Serif" font-size="10.00">detonate()</text>
</a>
</g>
</g>
<!-- Node2 -->
<g id="Node000002" class="node">
<title>Node2</title>
<g id="a_Node000002"><a xlink:href="classcore_1_1_entity_model.html" target="_top" xlink:title="The EntityModel class represents a generic entity in the game world. It serves as a base class for sp...">
<polygon fill="white" stroke="none" points="124.5,-492 16.5,-492 16.5,-216 124.5,-216 124.5,-492"/>
<polygon fill="#666666" stroke="#666666" points="16.5,-474 16.5,-474 124.5,-474 124.5,-474 16.5,-474"/>
<polygon fill="#666666" stroke="#666666" points="16.5,-410 16.5,-410 28.5,-410 28.5,-410 16.5,-410"/>
<polygon fill="#666666" stroke="#666666" points="28.5,-410 28.5,-410 124.5,-410 124.5,-410 28.5,-410"/>
<polygon fill="none" stroke="#666666" points="16.5,-216 16.5,-492 124.5,-492 124.5,-216 16.5,-216"/>
<text xml:space="preserve" text-anchor="start" x="32.25" y="-478.25" font-family="Helvetica,sans-Serif" font-size="10.00">core::EntityModel</text>
<text xml:space="preserve" text-anchor="start" x="20.88" y="-462.25" font-family="Helvetica,sans-Serif" font-size="10.00">#</text>
<text xml:space="preserve" text-anchor="start" x="30.5" y="-462.25" font-family="Helvetica,sans-Serif" font-size="10.00">id</text>
<text xml:space="preserve" text-anchor="start" x="20.88" y="-446.25" font-family="Helvetica,sans-Serif" font-size="10.00">#</text>
<text xml:space="preserve" text-anchor="start" x="30.5" y="-446.25" font-family="Helvetica,sans-Serif" font-size="10.00">position</text>
<text xml:space="preserve" text-anchor="start" x="20.88" y="-430.25" font-family="Helvetica,sans-Serif" font-size="10.00">#</text>
<text xml:space="preserve" text-anchor="start" x="30.5" y="-430.25" font-family="Helvetica,sans-Serif" font-size="10.00">size</text>
<text xml:space="preserve" text-anchor="start" x="20.88" y="-414.25" font-family="Helvetica,sans-Serif" font-size="10.00">#</text>
<text xml:space="preserve" text-anchor="start" x="30.5" y="-414.25" font-family="Helvetica,sans-Serif" font-size="10.00">animationType</text>
<text xml:space="preserve" text-anchor="start" x="20.5" y="-398.25" font-family="Helvetica,sans-Serif" font-size="10.00">+</text>
<text xml:space="preserve" text-anchor="start" x="30.5" y="-398.25" font-family="Helvetica,sans-Serif" font-size="10.00">EntityModel()</text>
<text xml:space="preserve" text-anchor="start" x="20.5" y="-382.25" font-family="Helvetica,sans-Serif" font-size="10.00">+</text>
<text xml:space="preserve" text-anchor="start" x="30.5" y="-382.25" font-family="Helvetica,sans-Serif" font-size="10.00">~EntityModel()</text>
<text xml:space="preserve" text-anchor="start" x="20.5" y="-366.25" font-family="Helvetica,sans-Serif" font-size="10.00">+</text>
<text xml:space="preserve" text-anchor="start" x="30.5" y="-366.25" font-family="Helvetica,sans-Serif" font-size="10.00">getPosition()</text>
<text xml:space="preserve" text-anchor="start" x="20.5" y="-350.25" font-family="Helvetica,sans-Serif" font-size="10.00">+</text>
<text xml:space="preserve" text-anchor="start" x="30.5" y="-350.25" font-family="Helvetica,sans-Serif" font-size="10.00">getId()</text>
<text xml:space="preserve" text-anchor="start" x="20.5" y="-334.25" font-family="Helvetica,sans-Serif" font-size="10.00">+</text>
<text xml:space="preserve" text-anchor="start" x="30.5" y="-334.25" font-family="Helvetica,sans-Serif" font-size="10.00">setId()</text>
<text xml:space="preserve" text-anchor="start" x="20.5" y="-318.25" font-family="Helvetica,sans-Serif" font-size="10.00">+</text>
<text xml:space="preserve" text-anchor="start" x="30.5" y="-318.25" font-family="Helvetica,sans-Serif" font-size="10.00">getSize()</text>
<text xml:space="preserve" text-anchor="start" x="20.5" y="-302.25" font-family="Helvetica,sans-Serif" font-size="10.00">+</text>
<text xml:space="preserve" text-anchor="start" x="30.5" y="-302.25" font-family="Helvetica,sans-Serif" font-size="10.00">setPosition()</text>
<text xml:space="preserve" text-anchor="start" x="20.5" y="-286.25" font-family="Helvetica,sans-Serif" font-size="10.00">+</text>
<text xml:space="preserve" text-anchor="start" x="30.5" y="-286.25" font-family="Helvetica,sans-Serif" font-size="10.00">isPlayerControlled()</text>
<text xml:space="preserve" text-anchor="start" x="20.5" y="-270.25" font-family="Helvetica,sans-Serif" font-size="10.00">+</text>
<text xml:space="preserve" text-anchor="start" x="30.5" y="-270.25" font-family="Helvetica,sans-Serif" font-size="10.00">getCharacterColor()</text>
<text xml:space="preserve" text-anchor="start" x="20.5" y="-254.25" font-family="Helvetica,sans-Serif" font-size="10.00">+</text>
<text xml:space="preserve" text-anchor="start" x="30.5" y="-254.25" font-family="Helvetica,sans-Serif" font-size="10.00">isCharacterOfColor()</text>
<text xml:space="preserve" text-anchor="start" x="30.5" y="-238.25" font-family="Helvetica,sans-Serif" font-size="10.00">and 25 more...</text>
<text xml:space="preserve" text-anchor="start" x="20.88" y="-222.25" font-family="Helvetica,sans-Serif" font-size="10.00">#</text>
<text xml:space="preserve" text-anchor="start" x="30.5" y="-222.25" font-family="Helvetica,sans-Serif" font-size="10.00">setAnimationType()</text>
</a>
</g>
</g>
<!-- Node2&#45;&gt;Node1 -->
<g id="edge1_Node000001_Node000002" class="edge">
<title>Node2&#45;&gt;Node1</title>
<g id="a_edge1_Node000001_Node000002"><a xlink:title=" ">
<path fill="none" stroke="#63b8ff" d="M70.5,-204.94C70.5,-196.37 70.5,-187.9 70.5,-179.68"/>
<polygon fill="none" stroke="#63b8ff" points="67,-204.73 70.5,-214.73 74,-204.73 67,-204.73"/>
</a>
</g>
</g>
<!-- Node3 -->
<g id="Node000003" class="node">
<title>Node3</title>
<g id="a_Node000003"><a xlink:href="classcore_1_1_subject.html" target="_top" xlink:title="The Subject class represents the subject in the Observer design pattern. It maintains a list of obser...">
<polygon fill="white" stroke="none" points="103.38,-628 37.62,-628 37.62,-528 103.38,-528 103.38,-628"/>
<polygon fill="#666666" stroke="#666666" points="37.62,-610 37.62,-610 103.38,-610 103.38,-610 37.62,-610"/>
<polygon fill="#666666" stroke="#666666" points="37.62,-594 37.62,-594 51,-594 51,-594 37.62,-594"/>
<polygon fill="#666666" stroke="#666666" points="51,-594 51,-594 103.38,-594 103.38,-594 51,-594"/>
<polygon fill="none" stroke="#666666" points="37.62,-528 37.62,-628 103.38,-628 103.38,-528 37.62,-528"/>
<text xml:space="preserve" text-anchor="start" x="41.62" y="-614.25" font-family="Helvetica,sans-Serif" font-size="10.00">core::Subject</text>
<text xml:space="preserve" text-anchor="start" x="42.69" y="-598.25" font-family="Helvetica,sans-Serif" font-size="10.00">#</text>
<text xml:space="preserve" text-anchor="start" x="53" y="-598.25" font-family="Helvetica,sans-Serif" font-size="10.00">observers</text>
<text xml:space="preserve" text-anchor="start" x="42.31" y="-582.25" font-family="Helvetica,sans-Serif" font-size="10.00">+</text>
<text xml:space="preserve" text-anchor="start" x="53" y="-582.25" font-family="Helvetica,sans-Serif" font-size="10.00">~Subject()</text>
<text xml:space="preserve" text-anchor="start" x="42.31" y="-566.25" font-family="Helvetica,sans-Serif" font-size="10.00">+</text>
<text xml:space="preserve" text-anchor="start" x="53" y="-566.25" font-family="Helvetica,sans-Serif" font-size="10.00">attach()</text>
<text xml:space="preserve" text-anchor="start" x="42.31" y="-550.25" font-family="Helvetica,sans-Serif" font-size="10.00">+</text>
<text xml:space="preserve" text-anchor="start" x="53" y="-550.25" font-family="Helvetica,sans-Serif" font-size="10.00">notify()</text>
<text xml:space="preserve" text-anchor="start" x="42.31" y="-534.25" font-family="Helvetica,sans-Serif" font-size="10.00">+</text>
<text xml:space="preserve" text-anchor="start" x="53" y="-534.25" font-family="Helvetica,sans-Serif" font-size="10.00">render()</text>
</a>
</g>
</g>
<!-- Node3&#45;&gt;Node2 -->
<g id="edge2_Node000002_Node000003" class="edge">
<title>Node3&#45;&gt;Node2</title>
<g id="a_edge2_Node000002_Node000003"><a xlink:title=" ">
<path fill="none" stroke="#63b8ff" d="M70.5,-516.7C70.5,-508.75 70.5,-500.36 70.5,-491.75"/>
<polygon fill="none" stroke="#63b8ff" points="67,-516.49 70.5,-526.49 74,-516.49 67,-516.49"/>
</a>
</g>
</g>
</g>
</svg>
