<?xml version="1.0" encoding="UTF-8" standalone="no"?>
<!DOCTYPE svg PUBLIC "-//W3C//DTD SVG 1.1//EN"
 "http://www.w3.org/Graphics/SVG/1.1/DTD/svg11.dtd">
<!-- Generated by graphviz version 16.0.0 (20260814.1018)
 -->
<!-- Title: core::EntityModel Pages: 1 -->
<svg width="158pt" height="454pt"
 viewBox="0.00 0.00 158.00 454.00" xmlns="http://www.w3.org/2000/svg" xmlns:xlink="http://www.w3.org/1999/xlink">
<g id="graph0" class="graph" transform="scale(1 1) rotate(0) translate(4 450)">
<title>core::EntityModel</title>
<!-- Node1 -->
<g id="Node000001" class="node">
<title>Node1</title>
<g id="a_Node000001"><a xlink:title="The EntityModel class represents a generic entity in the game world. It serves as a base class for sp...">
<polygon fill="#999999" stroke="none" points="128.88,-244 20.88,-244 20.88,0 128.88,0 128.88,-244"/>
<polygon fill="#666666" stroke="#666666" points="20.88,-226 20.88,-226 128.88,-226 128.88,-226 20.88,-226"/>
<polygon fill="#666666" stroke="#666666" points="20.88,-194 20.88,-194 32.88,-194 32.88,-194 20.88,-194"/>
<polygon fill="#666666" stroke="#666666" points="32.88,-194 32.88,-194 128.88,-194 128.88,-194 32.88,-194"/>
<polygon fill="none" stroke="#666666" points="20.88,0 20.88,-244 128.88,-244 128.88,0 20.88,0"/>
<text xml:space="preserve" text-anchor="start" x="36.62" y="-230.25" font-family="Helvetica,sans-Serif" font-size="10.00">core::EntityModel</text>
<text xml:space="preserve" text-anchor="start" x="25.25" y="-214.25" font-family="Helvetica,sans-Serif" font-size="10.00">#</text>
<text xml:space="preserve" text-anchor="start" x="34.88" y="-214.25" font-family="Helvetica,sans-Serif" font-size="10.00">id</text>
<text xml:space="preserve" text-anchor="start" x="25.25" y="-198.25" font-family="Helvetica,sans-Serif" font-size="10.00">#</text>
<text xml:space="preserve" text-anchor="start" x="34.88" y="-198.25" font-family="Helvetica,sans-Serif" font-size="10.00">animationType</text>
<text xml:space="preserve" text-anchor="start" x="24.88" y="-182.25" font-family="Helvetica,sans-Serif" font-size="10.00">+</text>
<text xml:space="preserve" text-anchor="start" x="34.88" y="-182.25" font-family="Helvetica,sans-Serif" font-size="10.00">EntityModel()</text>
<text xml:space="preserve" text-anchor="start" x="24.88" y="-166.25" font-family="Helvetica,sans-Serif" font-size="10.00">+</text>
<text xml:space="preserve" text-anchor="start" x="34.88" y="-166.25" font-family="Helvetica,sans-Serif" font-size="10.00">~EntityModel()</text>
<text xml:space="preserve" text-anchor="start" x="24.88" y="-150.25" font-family="Helvetica,sans-Serif" font-size="10.00">+</text>
<text xml:space="preserve" text-anchor="start" x="34.88" y="-150.25" font-family="Helvetica,sans-Serif" font-size="10.00">getPosition()</text>
<text xml:space="preserve" text-anchor="start" x="24.88" y="-134.25" font-family="Helvetica,sans-Serif" font-size="10.00">+</text>
<text xml:space="preserve" text-anchor="start" x="34.88" y="-134.25" font-family="Helvetica,sans-Serif" font-size="10.00">getId()</text>
<text xml:space="preserve" text-anchor="start" x="24.88" y="-118.25" font-family="Helvetica,sans-Serif" font-size="10.00">+</text>
<text xml:space="preserve" text-anchor="start" x="34.88" y="-118.25" font-family="Helvetica,sans-Serif" font-size="10.00">setId()</text>
<text xml:space="preserve" text-anchor="start" x="24.88" y="-102.25" font-family="Helvetica,sans-Serif" font-size="10.00">+</text>
<text xml:space="preserve" text-anchor="start" x="34.88" y="-102.25" font-family="Helvetica,sans-Serif" font-size="10.00">getSize()</text>
<text xml:space="preserve" text-anchor="start" x="24.88" y="-86.25" font-family="Helvetica,sans-Serif" font-size="10.00">+</text>
<text xml:space="preserve" text-anchor="start" x="34.88" y="-86.25" font-family="Helvetica,sans-Serif" font-size="10.00">setPosition()</text>
<text xml:space="preserve" text-anchor="start" x="24.88" y="-70.25" font-family="Helvetica,sans-Serif" font-size="10.00">+</text>
<text xml:space="preserve" text-anchor="start" x="34.88" y="-70.25" font-family="Helvetica,sans-Serif" font-size="10.00">isPlayerControlled()</text>
<text xml:space="preserve" text-anchor="start" x="24.88" y="-54.25" font-family="Helvetica,sans-Serif" font-size="10.00">+</text>
<text xml:space="preserve" text-anchor="start" x="34.88" y="-54.25" font-family="Helvetica,sans-Serif" font-size="10.00">getCharacterColor()</text>
<text xml:space="preserve" text-anchor="start" x="24.88" y="-38.25" font-family="Helvetica,sans-Serif" font-size="10.00">+</text>
<text xml:space="preserve" text-anchor="start" x="34.88" y="-38.25" font-family="Helvetica,sans-Serif" font-size="10.00">isCharacterOfColor()</text>
<text xml:space="preserve" text-anchor="start" x="34.88" y="-22.25" font-family="Helvetica,sans-Serif" font-size="10.00">and 25 more...</text>
<text xml:space="preserve" text-anchor="start" x="25.25" y="-6.25" font-family="Helvetica,sans-Serif" font-size="10.00">#</text>
<text xml:space="preserve" text-anchor="start" x="34.88" y="-6.25" font-family="Helvetica,sans-Serif" font-size="10.00">setAnimationType()</text>
</a>
</g>
</g>
<!-- Node2 -->
<g id="Node000002" class="node">
<title>Node2</title>
<g id="a_Node000002"><a xlink:href="classcore_1_1_subject.html" target="_top" xlink:title="The Subject class represents the subject in the Observer design pattern. It maintains a list of obser...">
<polygon fill="white" stroke="none" points="65.75,-430 0,-430 0,-330 65.75,-330 65.75,-430"/>
<polygon fill="#666666" stroke="#666666" points="0,-412 0,-412 65.75,-412 65.75,-412 0,-412"/>
<polygon fill="#666666" stroke="#666666" points="0,-396 0,-396 13.38,-396 13.38,-396 0,-396"/>
<polygon fill="#666666" stroke="#666666" points="13.38,-396 13.38,-396 65.75,-396 65.75,-396 13.38,-396"/>
<polygon fill="none" stroke="#666666" points="0,-330 0,-430 65.75,-430 65.75,-330 0,-330"/>
<text xml:space="preserve" text-anchor="start" x="4" y="-416.25" font-family="Helvetica,sans-Serif" font-size="10.00">core::Subject</text>
<text xml:space="preserve" text-anchor="start" x="5.06" y="-400.25" font-family="Helvetica,sans-Serif" font-size="10.00">#</text>
<text xml:space="preserve" text-anchor="start" x="15.38" y="-400.25" font-family="Helvetica,sans-Serif" font-size="10.00">observers</text>
<text xml:space="preserve" text-anchor="start" x="4.69" y="-384.25" font-family="Helvetica,sans-Serif" font-size="10.00">+</text>
<text xml:space="preserve" text-anchor="start" x="15.38" y="-384.25" font-family="Helvetica,sans-Serif" font-size="10.00">~Subject()</text>
<text xml:space="preserve" text-anchor="start" x="4.69" y="-368.25" font-family="Helvetica,sans-Serif" font-size="10.00">+</text>
<text xml:space="preserve" text-anchor="start" x="15.38" y="-368.25" font-family="Helvetica,sans-Serif" font-size="10.00">attach()</text>
<text xml:space="preserve" text-anchor="start" x="4.69" y="-352.25" font-family="Helvetica,sans-Serif" font-size="10.00">+</text>
<text xml:space="preserve" text-anchor="start" x="15.38" y="-352.25" font-family="Helvetica,sans-Serif" font-size="10.00">notify()</text>
<text xml:space="preserve" text-anchor="start" x="4.69" y="-336.25" font-family="Helvetica,sans-Serif" font-size="10.00">+</text>
<text xml:space="preserve" text-anchor="start" x="15.38" y="-336.25" font-family="Helvetica,sans-Serif" font-size="10.00">render()</text>
</a>
</g>
</g>
<!-- Node2&#45;&gt;Node1 -->
<g id="edge1_Node000001_Node000002" class="edge">
<title>Node2&#45;&gt;Node1</title>
<g id="a_edge1_Node000001_Node000002"><a xlink:title=" ">
<path fill="none" stroke="#63b8ff" d="M42.69,-319.17C46.39,-296.6 50.75,-270.03 55.05,-243.86"/>
<polygon fill="none" stroke="#63b8ff" points="39.28,-318.32 41.12,-328.75 46.19,-319.45 39.28,-318.32"/>
</a>
</g>
</g>
<!-- Node3 -->
<g id="Node000003" class="node">
<title>Node3</title>
<g id="a_Node000003"><a xlink:href="structcore_1_1_vector2.html" target="_top" xlink:title="The Vector2 struct represents a 2D vector with x and y components. It provides basic vector operation...">
<polygon fill="white" stroke="none" points="149.75,-446 84,-446 84,-314 149.75,-314 149.75,-446"/>
<polygon fill="#666666" stroke="#666666" points="84,-428 84,-428 149.75,-428 149.75,-428 84,-428"/>
<polygon fill="#666666" stroke="#666666" points="84,-396 84,-396 96.25,-396 96.25,-396 84,-396"/>
<polygon fill="#666666" stroke="#666666" points="96.25,-396 96.25,-396 149.75,-396 149.75,-396 96.25,-396"/>
<polygon fill="none" stroke="#666666" points="84,-314 84,-446 149.75,-446 149.75,-314 84,-314"/>
<text xml:space="preserve" text-anchor="start" x="88" y="-432.25" font-family="Helvetica,sans-Serif" font-size="10.00">core::Vector2</text>
<text xml:space="preserve" text-anchor="start" x="88.12" y="-416.25" font-family="Helvetica,sans-Serif" font-size="10.00">+</text>
<text xml:space="preserve" text-anchor="start" x="98.25" y="-416.25" font-family="Helvetica,sans-Serif" font-size="10.00">x</text>
<text xml:space="preserve" text-anchor="start" x="88.12" y="-400.25" font-family="Helvetica,sans-Serif" font-size="10.00">+</text>
<text xml:space="preserve" text-anchor="start" x="98.25" y="-400.25" font-family="Helvetica,sans-Serif" font-size="10.00">y</text>
<text xml:space="preserve" text-anchor="start" x="88.12" y="-384.25" font-family="Helvetica,sans-Serif" font-size="10.00">+</text>
<text xml:space="preserve" text-anchor="start" x="98.25" y="-384.25" font-family="Helvetica,sans-Serif" font-size="10.00">Vector2()</text>
<text xml:space="preserve" text-anchor="start" x="88.12" y="-368.25" font-family="Helvetica,sans-Serif" font-size="10.00">+</text>
<text xml:space="preserve" text-anchor="start" x="98.25" y="-368.25" font-family="Helvetica,sans-Serif" font-size="10.00">Vector2()</text>
<text xml:space="preserve" text-anchor="start" x="88.12" y="-352.25" font-family="Helvetica,sans-Serif" font-size="10.00">+</text>
<text xml:space="preserve" text-anchor="start" x="98.25" y="-352.25" font-family="Helvetica,sans-Serif" font-size="10.00">operator+()</text>
<text xml:space="preserve" text-anchor="start" x="88.12" y="-336.25" font-family="Helvetica,sans-Serif" font-size="10.00">+</text>
<text xml:space="preserve" text-anchor="start" x="98.25" y="-336.25" font-family="Helvetica,sans-Serif" font-size="10.00">operator&#45;()</text>
<text xml:space="preserve" text-anchor="start" x="88.12" y="-320.25" font-family="Helvetica,sans-Serif" font-size="10.00">+</text>
<text xml:space="preserve" text-anchor="start" x="98.25" y="-320.25" font-family="Helvetica,sans-Serif" font-size="10.00">operator*()</text>
</a>
</g>
</g>
<!-- Node3&#45;&gt;Node1 -->
<g id="edge2_Node000001_Node000003" class="edge">
<title>Node3&#45;&gt;Node1</title>
<g id="a_edge2_Node000001_Node000003"><a xlink:title=" ">
<path fill="none" stroke="#63b8ff" d="M106.22,-314.07C103.33,-296.43 100.08,-276.65 96.81,-256.7"/>
<polygon fill="none" stroke="#63b8ff" points="96.8,-256.65 91.88,-251.38 94.86,-244.81 99.78,-250.08 96.8,-256.65"/>
</a>
</g>
<text xml:space="preserve" text-anchor="start" x="105.09" y="-283.25" font-family="Helvetica,sans-Serif" font-size="10.00" fill="grey">#position</text>
<text xml:space="preserve" text-anchor="start" x="105.09" y="-267.25" font-family="Helvetica,sans-Serif" font-size="10.00" fill="grey">#size</text>
</g>
</g>
</svg>
